<svg id="visual" viewBox="0 0 960 600" width="960" height="600" xmlns="http://www.w3.org/2000/svg" xmlns:xlink="http://www.w3.org/1999/xlink" version="1.1"><rect x="0" y="0" width="960" height="600" fill="#202731"></rect><path d="M0 203L22.8 207.7C45.7 212.3 91.3 221.7 137 228C182.7 234.3 228.3 237.7 274 227.5C319.7 217.3 365.3 193.7 411.2 190.5C457 187.3 503 204.7 548.8 211C594.7 217.3 640.3 212.7 686 214.3C731.7 216 777.3 224 823 214.7C868.7 205.3 914.3 178.7 937.2 165.3L960 152L960 0L937.2 0C914.3 0 868.7 0 823 0C777.3 0 731.7 0 686 0C640.3 0 594.7 0 548.8 0C503 0 457 0 411.2 0C365.3 0 319.7 0 274 0C228.3 0 182.7 0 137 0C91.3 0 45.7 0 22.8 0L0 0Z" fill="#c62368"></path><path d="M0 189L22.8 185.7C45.7 182.3 91.3 175.7 137 177.3C182.7 179 228.3 189 274 189.7C319.7 190.3 365.3 181.7 411.2 179.7C457 177.7 503 182.3 548.8 178.3C594.7 174.3 640.3 161.7 686 160.7C731.7 159.7 777.3 170.3 823 173.7C868.7 177 914.3 173 937.2 171L960 169L960 0L937.2 0C914.3 0 868.7 0 823 0C777.3 0 731.7 0 686 0C640.3 0 594.7 0 548.8 0C503 0 457 0 411.2 0C365.3 0 319.7 0 274 0C228.3 0 182.7 0 137 0C91.3 0 45.7 0 22.8 0L0 0Z" fill="#d53867"></path><path d="M0 140L22.8 137.3C45.7 134.7 91.3 129.3 137 127.3C182.7 125.3 228.3 126.7 274 126.5C319.7 126.3 365.3 124.7 411.2 123.7C457 122.7 503 122.3 548.8 122C594.7 121.7 640.3 121.3 686 122.2C731.7 123 777.3 125 823 125.2C868.7 125.3 914.3 123.7 937.2 122.8L960 122L960 0L937.2 0C914.3 0 868.7 0 823 0C777.3 0 731.7 0 686 0C640.3 0 594.7 0 548.8 0C503 0 457 0 411.2 0C365.3 0 319.7 0 274 0C228.3 0 182.7 0 137 0C91.3 0 45.7 0 22.8 0L0 0Z" fill="#e34c67"></path><path d="M0 72L22.8 73.7C45.7 75.3 91.3 78.7 137 81C182.7 83.3 228.3 84.7 274 82.5C319.7 80.3 365.3 74.7 411.2 71.3C457 68 503 67 548.8 73.3C594.7 79.7 640.3 93.3 686 98.8C731.7 104.3 777.3 101.7 823 98.8C868.7 96 914.3 93 937.2 91.5L960 90L960 0L937.2 0C914.3 0 868.7 0 823 0C777.3 0 731.7 0 686 0C640.3 0 594.7 0 548.8 0C503 0 457 0 411.2 0C365.3 0 319.7 0 274 0C228.3 0 182.7 0 137 0C91.3 0 45.7 0 22.8 0L0 0Z" fill="#ef5f67"></path><path d="M0 68L22.8 68.2C45.7 68.3 91.3 68.7 137 68.7C182.7 68.7 228.3 68.3 274 67.5C319.7 66.7 365.3 65.3 411.2 61.3C457 57.3 503 50.7 548.8 50C594.7 49.3 640.3 54.7 686 54.7C731.7 54.7 777.3 49.3 823 44.2C868.7 39 914.3 34 937.2 31.5L960 29L960 0L937.2 0C914.3 0 868.7 0 823 0C777.3 0 731.7 0 686 0C640.3 0 594.7 0 548.8 0C503 0 457 0 411.2 0C365.3 0 319.7 0 274 0C228.3 0 182.7 0 137 0C91.3 0 45.7 0 22.8 0L0 0Z" fill="#fa7268"></path></svg>