<svg id="visual" viewBox="0 0 900 600" width="900" height="600" xmlns="http://www.w3.org/2000/svg" xmlns:xlink="http://www.w3.org/1999/xlink" version="1.1"><path d="M0 67L13.7 65C27.3 63 54.7 59 82 57C109.3 55 136.7 55 163.8 54C191 53 218 51 245.2 56C272.3 61 299.7 73 327 81C354.3 89 381.7 93 409 91C436.3 89 463.7 81 491 78C518.3 75 545.7 77 573 77C600.3 77 627.7 75 654.8 79C682 83 709 93 736.2 91C763.3 89 790.7 75 818 75C845.3 75 872.7 89 886.3 96L900 103L900 0L886.3 0C872.7 0 845.3 0 818 0C790.7 0 763.3 0 736.2 0C709 0 682 0 654.8 0C627.7 0 600.3 0 573 0C545.7 0 518.3 0 491 0C463.7 0 436.3 0 409 0C381.7 0 354.3 0 327 0C299.7 0 272.3 0 245.2 0C218 0 191 0 163.8 0C136.7 0 109.3 0 82 0C54.7 0 27.3 0 13.7 0L0 0Z" fill="#6198ff"></path><path d="M0 115L13.7 120C27.3 125 54.7 135 82 136C109.3 137 136.7 129 163.8 130C191 131 218 141 245.2 142C272.3 143 299.7 135 327 133C354.3 131 381.7 135 409 133C436.3 131 463.7 123 491 123C518.3 123 545.7 131 573 133C600.3 135 627.7 131 654.8 131C682 131 709 135 736.2 133C763.3 131 790.7 123 818 133C845.3 143 872.7 171 886.3 185L900 199L900 101L886.3 94C872.7 87 845.3 73 818 73C790.7 73 763.3 87 736.2 89C709 91 682 81 654.8 77C627.7 73 600.3 75 573 75C545.7 75 518.3 73 491 76C463.7 79 436.3 87 409 89C381.7 91 354.3 87 327 79C299.7 71 272.3 59 245.2 54C218 49 191 51 163.8 52C136.7 53 109.3 53 82 55C54.7 57 27.3 61 13.7 63L0 65Z" fill="#3c80ff"></path><path d="M0 295L13.7 312C27.3 329 54.7 363 82 358C109.3 353 136.7 309 163.8 307C191 305 218 345 245.2 348C272.3 351 299.7 317 327 302C354.3 287 381.7 291 409 294C436.3 297 463.7 299 491 306C518.3 313 545.7 325 573 319C600.3 313 627.7 289 654.8 299C682 309 709 353 736.2 347C763.3 341 790.7 285 818 286C845.3 287 872.7 345 886.3 374L900 403L900 197L886.3 183C872.7 169 845.3 141 818 131C790.7 121 763.3 129 736.2 131C709 133 682 129 654.8 129C627.7 129 600.3 133 573 131C545.7 129 518.3 121 491 121C463.7 121 436.3 129 409 131C381.7 133 354.3 129 327 131C299.7 133 272.3 141 245.2 140C218 139 191 129 163.8 128C136.7 127 109.3 135 82 134C54.7 133 27.3 123 13.7 118L0 113Z" fill="#0066ff"></path><path d="M0 373L13.7 392C27.3 411 54.7 449 82 460C109.3 471 136.7 455 163.8 449C191 443 218 447 245.2 439C272.3 431 299.7 411 327 412C354.3 413 381.7 435 409 449C436.3 463 463.7 469 491 459C518.3 449 545.7 423 573 404C600.3 385 627.7 373 654.8 387C682 401 709 441 736.2 440C763.3 439 790.7 397 818 400C845.3 403 872.7 451 886.3 475L900 499L900 401L886.3 372C872.7 343 845.3 285 818 284C790.7 283 763.3 339 736.2 345C709 351 682 307 654.8 297C627.7 287 600.3 311 573 317C545.7 323 518.3 311 491 304C463.7 297 436.3 295 409 292C381.7 289 354.3 285 327 300C299.7 315 272.3 349 245.2 346C218 343 191 303 163.8 305C136.7 307 109.3 351 82 356C54.7 361 27.3 327 13.7 310L0 293Z" fill="#0059dd"></path><path d="M0 601L13.7 601C27.3 601 54.7 601 82 601C109.3 601 136.7 601 163.8 601C191 601 218 601 245.2 601C272.3 601 299.7 601 327 601C354.3 601 381.7 601 409 601C436.3 601 463.7 601 491 601C518.3 601 545.7 601 573 601C600.3 601 627.7 601 654.8 601C682 601 709 601 736.2 601C763.3 601 790.7 601 818 601C845.3 601 872.7 601 886.3 601L900 601L900 497L886.3 473C872.7 449 845.3 401 818 398C790.7 395 763.3 437 736.2 438C709 439 682 399 654.8 385C627.7 371 600.3 383 573 402C545.7 421 518.3 447 491 457C463.7 467 436.3 461 409 447C381.7 433 354.3 411 327 410C299.7 409 272.3 429 245.2 437C218 445 191 441 163.8 447C136.7 453 109.3 469 82 458C54.7 447 27.3 409 13.7 390L0 371Z" fill="#004cbb"></path></svg>